<svg data-name="Layer 1" xmlns="http://www.w3.org/2000/svg" width="90" height="90" xmlns:xlink="http://www.w3.org/1999/xlink" viewBox="0 0 90 90"><defs><linearGradient id="a" x1="1370.263" y1="155.666" x2="1370.263" y2="69.638" gradientTransform="translate(-1325.263 -67.652)" gradientUnits="userSpaceOnUse"><stop offset="0" stop-color="#f90"/><stop offset="1" stop-color="#ff0"/></linearGradient><linearGradient id="b" x1="1374.943" x2="1374.943" xlink:href="#a"/><linearGradient id="c" x1="1379.962" y1="155.666" x2="1379.962" y2="69.638" gradientTransform="translate(-1325.263 -67.652)" gradientUnits="userSpaceOnUse"><stop offset="0" stop-color="#ccc"/><stop offset=".9" stop-color="#fff"/></linearGradient><linearGradient id="d" x1="1370.263" y1="153.239" x2="1370.263" y2="108.134" gradientTransform="translate(-1325.263 -67.652)" gradientUnits="userSpaceOnUse"><stop offset="0" stop-opacity="0"/><stop offset="1" stop-opacity=".1"/></linearGradient></defs><g data-name="third card"><path data-name="third border" d="M69.701 0H20.299C9.106 0 0 9.106 0 20.299V69.7c0 11.193 9.106 20.299 20.299 20.299H69.7c11.193 0 20.299-9.106 20.299-20.299V20.299C90 9.106 80.894 0 69.701 0Zm18.313 69.701c0 10.098-8.215 18.313-18.313 18.313H20.299c-10.098 0-18.313-8.215-18.313-18.313V20.299c0-10.098 8.215-18.313 18.313-18.313H69.7c10.098 0 18.313 8.215 18.313 18.313V69.7Z"/><path data-name="third outline" d="M69.701 1.986H20.299c-10.098 0-18.313 8.215-18.313 18.313V69.7c0 10.098 8.215 18.313 18.313 18.313H69.7c10.098 0 18.313-8.215 18.313-18.313V20.299c0-10.098-8.215-18.313-18.313-18.313Zm15.886 67.715c0 8.738-7.149 15.886-15.886 15.886H20.299c-3.277 0-6.33-1.005-8.866-2.723a16.104 16.104 0 0 1-3.381-3.074 15.968 15.968 0 0 1-2.386-3.922A15.736 15.736 0 0 1 4.412 69.7V20.299c0-.546.028-1.086.082-1.618.49-4.791 3.133-8.969 6.938-11.545a15.772 15.772 0 0 1 8.866-2.723h49.401c8.738 0 15.886 7.149 15.886 15.886V69.7Z" fill="url(#a)"/><path data-name="third fill" d="M69.701 4.413H20.299a15.729 15.729 0 0 0-8.866 2.723C7.628 9.712 4.986 13.89 4.495 18.681a15.735 15.735 0 0 0-.082 1.618V69.7c0 2.184.447 4.27 1.254 6.168a15.968 15.968 0 0 0 2.386 3.922 16.104 16.104 0 0 0 3.381 3.074 15.767 15.767 0 0 0 8.866 2.723h49.401c8.738 0 15.886-7.149 15.886-15.886V20.299c0-8.738-7.149-15.886-15.886-15.886Z" fill="#fc0"/></g><g data-name="second card"><path data-name="second border" d="M69.701 0H29.659C18.466 0 9.36 9.106 9.36 20.299V69.7c0 11.193 9.106 20.299 20.299 20.299H69.7c11.193 0 20.299-9.106 20.299-20.299V20.299C90 9.106 80.894 0 69.701 0Zm18.313 69.701c0 10.098-8.215 18.313-18.313 18.313H29.659c-10.098 0-18.313-8.215-18.313-18.313V20.299c0-10.098 8.215-18.313 18.313-18.313H69.7c10.098 0 18.313 8.215 18.313 18.313V69.7Z"/><path data-name="second outline" d="M69.701 1.986H29.659c-10.098 0-18.313 8.215-18.313 18.313V69.7c0 10.098 8.215 18.313 18.313 18.313H69.7c10.098 0 18.313-8.215 18.313-18.313V20.299c0-10.098-8.215-18.313-18.313-18.313Zm15.886 67.715c0 8.738-7.149 15.886-15.886 15.886H29.659c-3.277 0-6.33-1.005-8.866-2.723a16.104 16.104 0 0 1-3.381-3.074 15.968 15.968 0 0 1-2.386-3.922 15.736 15.736 0 0 1-1.254-6.168V20.299c0-.546.028-1.086.082-1.618.49-4.791 3.133-8.969 6.938-11.545a15.772 15.772 0 0 1 8.866-2.723h40.041c8.738 0 15.886 7.149 15.886 15.886V69.7Z" fill="url(#b)"/><path data-name="second fill" d="M69.701 4.413H29.659a15.729 15.729 0 0 0-8.866 2.723c-3.805 2.576-6.447 6.754-6.938 11.545a15.735 15.735 0 0 0-.082 1.618V69.7c0 2.184.447 4.27 1.254 6.168a15.968 15.968 0 0 0 2.386 3.922 16.104 16.104 0 0 0 3.381 3.074 15.767 15.767 0 0 0 8.866 2.723h40.041c8.738 0 15.886-7.149 15.886-15.886V20.299c0-8.738-7.149-15.886-15.886-15.886Z" fill="#fc0"/></g><g data-name="front card"><path data-name="front border" d="M69.701 0H39.697C28.504 0 19.398 9.106 19.398 20.299V69.7c0 11.193 9.106 20.299 20.299 20.299h30.004C80.894 89.999 90 80.893 90 69.7V20.299C90 9.106 80.894 0 69.701 0Zm18.313 69.701c0 10.098-8.215 18.313-18.313 18.313H39.697c-10.098 0-18.313-8.215-18.313-18.313V20.299c0-10.098 8.215-18.313 18.313-18.313h30.004c10.098 0 18.313 8.215 18.313 18.313V69.7Z"/><path data-name="front outline" d="M69.701 1.986H39.697c-10.098 0-18.313 8.215-18.313 18.313V69.7c0 10.098 8.215 18.313 18.313 18.313h30.004c10.098 0 18.313-8.215 18.313-18.313V20.299c0-10.098-8.215-18.313-18.313-18.313Zm15.886 67.715c0 8.738-7.149 15.886-15.886 15.886H39.697c-3.277 0-6.33-1.005-8.866-2.723a16.104 16.104 0 0 1-3.381-3.074 15.968 15.968 0 0 1-2.386-3.922A15.736 15.736 0 0 1 23.81 69.7V20.299c0-.546.028-1.086.082-1.618.49-4.791 3.133-8.969 6.938-11.545a15.772 15.772 0 0 1 8.866-2.723H69.7c8.738 0 15.886 7.149 15.886 15.886V69.7Z" fill="url(#c)"/><path data-name="front fill" d="M69.701 4.413H39.697a15.729 15.729 0 0 0-8.866 2.723c-3.805 2.576-6.447 6.754-6.938 11.545a15.735 15.735 0 0 0-.082 1.618V69.7c0 2.184.447 4.27 1.254 6.168a15.968 15.968 0 0 0 2.386 3.922 16.104 16.104 0 0 0 3.381 3.074 15.767 15.767 0 0 0 8.866 2.723h30.004c8.738 0 15.886-7.149 15.886-15.886V20.299c0-8.738-7.149-15.886-15.886-15.886Z" fill="#efefef"/><path data-name="front fade" d="M45.001 45.167c-15.23 0-29.282-1.744-40.588-4.685v29.219c0 2.184.447 4.27 1.253 6.168a15.968 15.968 0 0 0 2.386 3.922 16.104 16.104 0 0 0 3.381 3.074 15.764 15.764 0 0 0 8.866 2.723H69.7c8.738 0 15.886-7.149 15.886-15.886V40.484C74.281 43.425 60.229 45.168 45 45.168Z" fill="url(#d)"/></g><g data-name="247 tab"><path data-name="tab fill" d="M16.455 59.994V32.57a3.904 3.904 0 0 0-3.903-3.904H1.986v35.231h10.566a3.904 3.904 0 0 0 3.903-3.903Z"/><path data-name="tab 247" d="M8.591 39.571c-.367-.274-.63-.804-.941-1.593l-1.19-3.09c-.088-.227-.249-.53-.395-.682-.208-.211-.485-.319-1.266-.319h-.425v4.698h1.91v1.574H2.963v-7.845h1.616c1.47 0 1.955.166 2.438.666.282.288.486.636.765 1.363l1.206 3.136c.178.468.323.59.467.681.193.121.353.198 1.062.198.673 0 .953-.089 1.099-.244.089-.087.178-.271.178-.665v-2.332c0-.455-.088-.59-.191-.696-.101-.107-.306-.213-1.512-.242V32.51c1.719.033 2.238-.066 2.666.374.308.317.492.687.492 1.566v3.212c0 .926-.19 1.41-.512 1.743-.429.44-.956.621-2.146.621-1.119 0-1.516-.09-2-.453Zm4.657 7.55v2.106H4.301v1.862H2.963v-5.467h1.338v2.029h1.721v-4.918l1.217.009c.383 0 .63.09 1 .348l4.394 3.061c.44.303.615.53.615.969Zm-1.263.271-4.701-3.316v3.575h4.701v-.259ZM6.08 52.64c-.083.089-.103.184-.103.379v.581c0 .195.02.29.103.379.097.113.228.16.696.16s.595-.047.696-.16c.079-.089.101-.184.101-.379v-.581c0-.195-.022-.29-.101-.379-.101-.113-.229-.16-.696-.16s-.599.047-.696.16Zm-3.1 5.49 3.842-.004 4.012 2.121h1.96l.454-.466v-6.706h-3.245v1.591h1.88v3.803l-1.049.02-3.933-2.141-3.921.004v1.778Z" fill="#fff"/></g><path data-name="icon face" d="M26.594 30.078v-2.834h2.268l5.4-17.126c.268-.836.538-1.015 1.432-1.015h2.507c.894 0 1.163.179 1.43 1.015l5.401 17.126h2.267v2.834h-8.652v-2.834h2.864l-1.104-3.729c-1.82 0-5.341.03-7.25.03l-1.104 3.699h2.864v2.834h-8.324Zm7.341-9.249h5.667l-2.595-8.803h-.448l-2.625 8.803ZM73.363 7.902c-1.546 3.414-9.443 8.198-9.443 14.277 0 2.46 1.88 4.455 4.196 4.455 1.555 0 2.911-.901 3.635-2.234.807-1.72.384-2.949.384-2.949.57 1.288.339 4.86.166 6.752h-2.089v1.876h6.3v-1.876h-2.081c-.163-1.896-.381-5.48.161-6.752 0 0-.325 1.54.382 2.949.723 1.334 2.079 2.234 3.635 2.234 2.316 0 4.194-1.995 4.194-4.455 0-6.079-7.879-10.822-9.441-14.277ZM54.701 37.016c-3.144 6.941-19.197 16.666-19.197 29.023 0 5.001 3.821 9.056 8.53 9.056 3.16 0 5.918-1.831 7.39-4.542 1.641-3.496.78-5.996.78-5.996 1.158 2.618.688 9.88.337 13.726h-4.246v3.814h12.807v-3.814h-4.231c-.331-3.855-.774-11.14.327-13.726 0 0-.661 3.131.776 5.996 1.471 2.711 4.226 4.542 7.39 4.542 4.709 0 8.527-4.055 8.527-9.056 0-12.358-16.018-22-19.193-29.023Z"/></svg>