<svg version="1.1" id="SR_ICON" xmlns="http://www.w3.org/2000/svg" x="0" y="0" viewBox="0 0 510 510" xml:space="preserve" width="510" height="510"><style>.sti2{fill:#fff}.sti4,.sti5{opacity:.75;fill:#fff;enable-background:new}.sti5{opacity:.5}</style><path id="Outline" d="M284.9 10.6h109.6c57.8 0 104.8 46.7 104.8 104.2v280.4c0 57.4-47 104.1-104.8 104.1H115.4c-57.8 0-104.8-46.7-104.8-104.1V114.8c0-57.4 47-104.1 104.8-104.1l169.5-.1M394.6 0 286.3.1H115.4C51.7.1 0 51.5 0 114.8v280.4C0 458.6 51.7 510 115.4 510h279.1c63.8 0 115.4-51.4 115.4-114.8V114.8C510 51.4 458.3 0 394.6 0z"/><linearGradient id="Inside_Line_1_" gradientUnits="userSpaceOnUse" x1="-450.785" y1="-3607.1" x2="-450.785" y2="-3118.38" gradientTransform="matrix(1 0 0 -1 705.82 -3107.74)"><stop offset="0" stop-color="#1a1a1a"/><stop offset="1" stop-color="#333"/></linearGradient><path id="Inside_Line" d="M394.6 10.6H285l-169.5.1c-57.8 0-104.8 46.7-104.8 104.1v280.4c0 57.4 47 104.1 104.8 104.1h279.2c57.8 0 104.8-46.7 104.8-104.1V114.8c-.1-57.4-47.1-104.2-104.9-104.2zm91.5 384.6c0 50.1-41.1 90.9-91.5 90.9H225.1h.2-109.9c-50.5 0-91.5-40.8-91.5-90.9V114.8C23.9 64.7 65 24 115.4 24h279.1C445 24 486 64.8 486 114.9l.1 280.3z" fill="url(#Inside_Line_1_)"/><linearGradient id="Fill_1_" gradientUnits="userSpaceOnUse" x1="-1076.93" y1="-2507.53" x2="-1076.93" y2="-2045.4" gradientTransform="matrix(1 0 0 -1 1331.93 -2021.45)"><stop offset="0" stop-color="#333"/><stop offset="1"/></linearGradient><path id="Fill" d="M486.1 395.2c0 50.1-41.1 90.9-91.5 90.9H225.1h.2-109.9c-50.5 0-91.5-40.8-91.5-90.9V114.8C23.9 64.7 65 24 115.4 24h279.1C445 24 486 64.8 486 114.9l.1 280.3z" fill="url(#Fill_1_)"/><g id="_247"><path d="M3.7 362.6V162.1h67.1c12.3 0 22.2 10 22.2 22.2v156.1c0 12.3-10 22.2-22.2 22.2H3.7z"/><path class="sti2" d="M48.2 224.6c-2.1-1.6-3.6-4.6-5.4-9.1L36.1 198c-.5-1.4-1.3-2.7-2.2-3.9-1.2-1.2-2.8-1.8-7.2-1.8h-2.4V219h10.9v9h-19v-44.7h9.2c8.4 0 11.1.9 13.9 3.8 1.6 1.6 2.8 3.6 4.4 7.8l6.9 17.9c1 2.7 1.8 3.4 2.7 3.9 1.1.7 2 1.1 6 1.1 3.8 0 5.4-.5 6.3-1.4.5-.5 1-1.5 1-3.8v-13.3c0-2.6-.5-3.4-1.1-4s-1.7-1.2-8.6-1.4v-9.5c9.8.2 12.7-.4 15.2 2.1 1.8 1.8 2.8 3.9 2.8 8.9v18.3c0 5.3-1.1 8-2.9 9.9-2.4 2.5-5.4 3.5-12.2 3.5-6.6.1-8.8-.4-11.6-2.5zm26.6 43v12h-51v10.6h-7.6V259h7.6v11.6h9.8v-28l6.9.1c2.1 0 4.1.7 5.7 2l25 17.4c2.6 1.7 3.6 3 3.6 5.5zm-7.2 1.6-26.8-18.9v20.4h26.8v-1.5zM33.9 299c-.5.6-.7 1.4-.6 2.2v3.3c-.1.8.1 1.6.6 2.2.5.6 1.3.9 4 .9s3.4-.3 4-.9c.5-.6.7-1.4.6-2.2v-3.3c.1-.8-.1-1.5-.6-2.2-.6-.6-1.3-.9-4-.9s-3.4.3-4 .9zm-17.6 31.3h21.9L61 342.4h11.2l2.6-2.7v-38.2H56.3v9.1H67v21.6l-6 .1-22.4-12.2H16.3v10.2z"/></g><path class="sti2" d="M141.6 283.3c-.6-.6-1-1.3-1.2-2.1-.6-2 .3-4.2 2.1-5.3l211-128.3c1.9-1.1 4.3-.8 5.8.7s1.8 3.9.7 5.8L232 365.4c-1.4 2.2-4.3 2.9-6.5 1.6-1.6-1-2.5-2.7-2.2-4.6 0-.3 3.6-32.6-16.5-55.1-13.3-15-34.1-22.6-61.8-22.6-1.3 0-2.5-.5-3.4-1.4zm200.2-117.5L160.5 276c23 2.5 40.9 10.9 53.4 25 13 14.7 17.3 32.4 18.6 45.2l109.3-180.4z" id="Ship"/><g id="Thrust"><linearGradient id="SVGID_1_" gradientUnits="userSpaceOnUse" x1="41" y1="123.726" x2="202.858" y2="123.726" gradientTransform="matrix(1 0 0 -1 0 509)"><stop offset="0" stop-color="#ccc" stop-opacity="0"/><stop offset="1" stop-color="#fff"/></linearGradient><path d="M141.2 356.5c-3.3 6.4-11.2 8.8-17.5 5.5-6.4-3.3-8.8-11.2-5.5-17.5 3.3-6.4 11.2-8.8 17.5-5.5 6.4 3.2 8.8 11.1 5.5 17.5zM65.1 458.6c3.2-6.5.5-14.5-6-17.7-6.3-3.1-14-.7-17.4 5.4-.3.5-.5 1.1-.7 1.7 4.6 6.4 10 12.1 16.1 17.1 3.4-1 6.3-3.3 8-6.5zm47.5-98.5c-7.4-3.9-16.5-1-20.4 6.4s-1 16.5 6.4 20.4c7.4 3.9 16.5 1 20.4-6.4 3.8-7.4 1-16.5-6.4-20.4zm79.7-52.4c-9.6-5-21.5-1.3-26.6 8.3-2.5 4.8-2.9 10.3-1.2 15.4-9.5-2.3-19.1 3.5-21.4 13-2.3 9.5 3.5 19.1 13 21.4s19.1-3.5 21.4-13c.7-2.9.7-6-.1-8.8 10.4 3.2 21.4-2.7 24.6-13.1 2.8-9.1-1.3-18.8-9.7-23.2zm-93 112.2c-8.7-4.5-19.4-1.2-24 7.5-4.5 8.7-1.2 19.4 7.5 24 8.7 4.5 19.4 1.2 23.9-7.5 4.7-8.7 1.3-19.4-7.4-24zm5.7-22.5c-5-2.6-11.1-.7-13.7 4.3-2.6 5-.7 11.1 4.3 13.7 5 2.6 11.1.7 13.7-4.3 2.6-4.9.7-11.1-4.3-13.7z" fill="url(#SVGID_1_)"/></g><g id="Projectile"><circle class="sti2" cx="391.4" cy="118.8" r="10.7"/><circle class="sti2" cx="441.5" cy="69.7" r="10.7"/></g><g id="Stars"><path class="sti4" d="m77.4 107.3-6.7-5.4 5.5-6.6-3.5-2.9-5.5 6.7-6.6-5.5-2.9 3.5 6.7 5.5-5.4 6.6 3.5 2.9 5.4-6.7 6.6 5.4zm281.7-57.5-8.1 2.7-2.8-8.1-4.2 1.5 2.7 8.1-8.1 2.8 1.5 4.3 8.1-2.8 2.8 8.1 4.2-1.4-2.7-8.2 8.1-2.8z"/><path class="sti5" d="m188.8 417.1-7.6-3.9 3.9-7.7-4-2-3.9 7.6-7.6-4-2.1 4 7.6 4-4 7.6 4 2.1 4-7.6 7.6 3.9z"/><path class="sti4" d="m423.4 443.3-7.6-3.9 4-7.7-4-2.1-4 7.7-7.6-4-2.1 4 7.6 4-4 7.6 4.1 2.1 3.9-7.6 7.6 3.9z"/><path class="sti5" d="m447.1 215.2-2.7-8.1 8.1-2.7-1.4-4.3-8.1 2.7-2.7-8.2-4.3 1.5 2.7 8.1-8.2 2.7 1.4 4.3 8.2-2.7 2.7 8.2zm-103 104.2-2.6-8.1 8.1-2.7-1.4-4.3-8.2 2.7-2.6-8.2-4.3 1.4 2.7 8.2-8.2 2.7 1.4 4.3 8.2-2.7 2.7 8.2zM211 138.7l-8.4-1.8 1.8-8.4-4.4-1-1.9 8.4-8.3-1.8-1 4.4 8.4 1.9-1.8 8.4 4.4.9 1.8-8.4 8.4 1.8z"/></g></svg>