<svg xmlns="http://www.w3.org/2000/svg" width="90" height="90" xmlns:xlink="http://www.w3.org/1999/xlink" viewBox="0 0 90 90"><defs><linearGradient id="a" x1="1367.26" y1="-43.637" x2="1367.26" y2="-129.665" gradientTransform="translate(-1322.26 131.651)" gradientUnits="userSpaceOnUse"><stop offset="0" stop-color="#ccc"/><stop offset="1" stop-color="#fff"/></linearGradient><linearGradient id="b" x1="158.493" y1="-376.702" x2="158.493" y2="-457.876" gradientTransform="translate(-113.493 462.289)" gradientUnits="userSpaceOnUse"><stop offset="0" stop-color="#fff"/><stop offset="1" stop-color="#ccc"/></linearGradient><linearGradient id="c" x1="1371.94" x2="1371.94" y2="-129.665" xlink:href="#a"/><linearGradient id="d" x1="163.173" x2="163.173" xlink:href="#b"/><linearGradient id="e" x1="1376.959" y1="-43.637" x2="1376.959" y2="-129.665" gradientTransform="translate(-1322.26 131.651)" gradientUnits="userSpaceOnUse"><stop offset="0" stop-color="#fc0"/><stop offset=".9" stop-color="#ffc" stop-opacity=".98"/></linearGradient><linearGradient id="f" x1="1367.26" y1="-46.064" x2="1367.26" y2="-91.169" gradientTransform="translate(-1322.26 131.651)" gradientUnits="userSpaceOnUse"><stop offset=".1" stop-opacity="0"/><stop offset=".9" stop-opacity=".1"/></linearGradient></defs><path d="M69.701 1.986H20.299c-10.098 0-18.313 8.215-18.313 18.313V69.7c0 10.098 8.215 18.313 18.313 18.313H69.7c10.098 0 18.313-8.215 18.313-18.313V20.299c0-10.098-8.215-18.313-18.313-18.313Zm15.886 67.715c0 8.738-7.149 15.886-15.886 15.886H20.299c-3.277 0-6.33-1.005-8.866-2.723a16.104 16.104 0 0 1-3.381-3.074 15.968 15.968 0 0 1-2.386-3.922A15.736 15.736 0 0 1 4.412 69.7V20.299c0-.546.028-1.086.082-1.618.49-4.791 3.133-8.969 6.938-11.545a15.772 15.772 0 0 1 8.866-2.723h49.401c8.738 0 15.886 7.149 15.886 15.886V69.7Z" fill="url(#a)"/><path d="M69.701 4.413H20.299a15.729 15.729 0 0 0-8.866 2.723C7.628 9.712 4.986 13.89 4.495 18.681a15.735 15.735 0 0 0-.082 1.618V69.7c0 2.184.447 4.27 1.254 6.168a15.968 15.968 0 0 0 2.386 3.922 16.104 16.104 0 0 0 3.381 3.074 15.767 15.767 0 0 0 8.866 2.723h49.401c8.738 0 15.886-7.149 15.886-15.886V20.299c0-8.738-7.149-15.886-15.886-15.886Z" fill="url(#b)"/><path d="M69.701 1.986H29.659c-10.098 0-18.313 8.215-18.313 18.313V69.7c0 10.098 8.215 18.313 18.313 18.313H69.7c10.098 0 18.313-8.215 18.313-18.313V20.299c0-10.098-8.215-18.313-18.313-18.313Zm15.886 67.715c0 8.738-7.149 15.886-15.886 15.886H29.659c-3.277 0-6.33-1.005-8.866-2.723a16.104 16.104 0 0 1-3.381-3.074 15.968 15.968 0 0 1-2.386-3.922 15.736 15.736 0 0 1-1.254-6.168V20.299c0-.546.028-1.086.082-1.618.49-4.791 3.133-8.969 6.938-11.545a15.772 15.772 0 0 1 8.866-2.723h40.041c8.738 0 15.886 7.149 15.886 15.886V69.7Z" fill="url(#c)"/><path d="M69.701 4.413H29.659a15.729 15.729 0 0 0-8.866 2.723c-3.805 2.576-6.447 6.754-6.938 11.545a15.735 15.735 0 0 0-.082 1.618V69.7c0 2.184.447 4.27 1.254 6.168a15.968 15.968 0 0 0 2.386 3.922 16.104 16.104 0 0 0 3.381 3.074 15.767 15.767 0 0 0 8.866 2.723h40.041c8.738 0 15.886-7.149 15.886-15.886V20.299c0-8.738-7.149-15.886-15.886-15.886Z" fill="url(#d)"/><rect x="21.384" y="1.986" width="66.631" height="86.028" rx="18.313" ry="18.313" fill="#ffeb43"/><path d="M69.701 1.986H39.697c-10.098 0-18.313 8.215-18.313 18.313V69.7c0 10.098 8.215 18.313 18.313 18.313h30.004c10.098 0 18.313-8.215 18.313-18.313V20.299c0-10.098-8.215-18.313-18.313-18.313Zm15.886 67.715c0 8.738-7.149 15.886-15.886 15.886H39.697c-3.277 0-6.33-1.005-8.866-2.723a16.104 16.104 0 0 1-3.381-3.074 15.968 15.968 0 0 1-2.386-3.922A15.736 15.736 0 0 1 23.81 69.7V20.299c0-.546.028-1.086.082-1.618.49-4.791 3.133-8.969 6.938-11.545a15.772 15.772 0 0 1 8.866-2.723H69.7c8.738 0 15.886 7.149 15.886 15.886V69.7Z" fill="url(#e)"/><path d="M45.001 45.167c-15.23 0-29.282-1.744-40.588-4.685v29.219c0 2.184.447 4.27 1.253 6.168a15.968 15.968 0 0 0 2.386 3.922 16.104 16.104 0 0 0 3.381 3.074 15.764 15.764 0 0 0 8.866 2.723H69.7c8.738 0 15.886-7.149 15.886-15.886V40.484C74.281 43.425 60.229 45.168 45 45.168Z" fill="url(#f)"/><path d="M69.701 0H20.299C9.106 0 0 9.106 0 20.299V69.7c0 11.193 9.106 20.299 20.299 20.299H69.7c11.193 0 20.299-9.106 20.299-20.299V20.299C90 9.106 80.894 0 69.701 0ZM1.986 20.299c0-10.098 8.215-18.313 18.313-18.313h.609C14.083 5.26 9.36 12.238 9.36 20.299v8.366H1.986v-8.366Zm18.313 67.715c-10.098 0-18.313-8.215-18.313-18.313v-5.804H9.36v5.804c0 8.061 4.724 15.039 11.548 18.313h-.609Zm9.36 0c-10.098 0-18.313-8.215-18.313-18.313v-5.804h1.206a3.904 3.904 0 0 0 3.903-3.903V32.57a3.904 3.904 0 0 0-3.903-3.904h-1.206V20.3c0-10.099 8.215-18.314 18.313-18.314h1.287C24.121 5.26 19.398 12.238 19.398 20.299V69.7c0 8.061 4.724 15.039 11.548 18.313h-1.287Zm58.355-18.313c0 10.098-8.215 18.313-18.313 18.313H39.697c-10.098 0-18.313-8.215-18.313-18.313V20.299c0-10.098 8.215-18.313 18.313-18.313h30.004c10.098 0 18.313 8.215 18.313 18.313V69.7Z"/><path d="M8.591 39.571c-.367-.274-.63-.804-.941-1.593l-1.19-3.09c-.088-.227-.249-.53-.395-.682-.208-.211-.485-.319-1.266-.319h-.425v4.698h1.91v1.574H2.963v-7.845h1.616c1.47 0 1.955.166 2.438.666.282.288.486.636.765 1.363l1.206 3.136c.178.468.323.59.467.681.193.121.353.198 1.062.198.673 0 .953-.089 1.099-.244.089-.087.178-.271.178-.665v-2.332c0-.455-.088-.59-.191-.696-.101-.107-.306-.213-1.512-.242V32.51c1.719.033 2.238-.066 2.666.374.308.317.492.687.492 1.566v3.212c0 .926-.19 1.41-.512 1.743-.429.44-.956.621-2.146.621-1.119 0-1.516-.09-2-.453Zm4.657 7.55v2.106H4.301v1.862H2.963v-5.467h1.338v2.029h1.721v-4.918l1.217.009c.383 0 .63.09 1 .348l4.394 3.061c.44.303.615.53.615.969Zm-1.263.271-4.701-3.316v3.575h4.701v-.259ZM6.08 52.64c-.083.089-.103.184-.103.379v.581c0 .195.02.29.103.379.097.113.228.16.696.16s.595-.047.696-.16c.079-.089.101-.184.101-.379v-.581c0-.195-.022-.29-.101-.379-.101-.113-.229-.16-.696-.16s-.599.047-.696.16Zm-3.1 5.49 3.842-.004 4.012 2.121h1.96l.454-.466v-6.706h-3.245v1.591h1.88v3.803l-1.049.02-3.933-2.141-3.921.004v1.778Z" fill="#fff"/><path d="M54.706 70.146c-10.728 0-19.426 2.175-19.426 4.857s8.698 4.857 19.426 4.857 19.427-2.174 19.427-4.857-8.697-4.857-19.427-4.857Zm12.173 6.555c-3.372.719-7.695 1.114-12.173 1.114s-8.8-.396-12.173-1.114c-2.81-.599-4.264-1.273-4.902-1.698.639-.423 2.093-1.097 4.902-1.696 3.372-.719 7.695-1.116 12.173-1.116s8.802.396 12.173 1.116c2.809.599 4.264 1.273 4.901 1.696-.637.425-2.092 1.098-4.901 1.698Zm12.668-16.346a3.02 3.02 0 0 1-3.018 3.019c-.02 0-.039-.003-.059-.003l-1.877 9.275c-2.648-2.336-10.55-4.032-19.887-4.032S37.467 70.31 34.82 72.646l-1.877-9.275c-.02 0-.039.003-.06.003a3.019 3.019 0 1 1 3.018-3.019 3.014 3.014 0 0 1-1.651 2.688c.886 3.003 3.342 4.955 5.65 4.41 2.42-.57 3.76-3.668 2.994-6.915-.018-.07-.039-.14-.057-.209a3.018 3.018 0 1 1 1.79-.115c.577 2.942 2.698 5.048 4.982 4.813 2.473-.253 4.201-3.151 3.86-6.47a7.755 7.755 0 0 0-.747-2.633h-1.154v-1.981h2c.183-1.938.464-5.922-.158-7.326 0 0 .448 1.3-.405 3.114-.766 1.409-2.196 2.359-3.838 2.359-2.446 0-4.429-2.105-4.429-4.703 0-6.419 8.336-11.469 9.969-15.072 1.648 3.646 9.969 8.653 9.969 15.072 0 2.598-1.984 4.703-4.43 4.703-1.643 0-3.073-.951-3.837-2.359-.745-1.488-.404-3.114-.404-3.114-.591 1.387-.325 5.383-.152 7.326h1.993v1.981h-1.154a7.727 7.727 0 0 0-.748 2.633c-.34 3.319 1.387 6.217 3.86 6.47 2.286.235 4.406-1.871 4.983-4.813a3.016 3.016 0 0 1 1.079-5.834 3.018 3.018 0 0 1 .712 5.949c-.018.07-.039.139-.056.209-.767 3.248.573 6.345 2.993 6.915 2.309.545 4.765-1.408 5.651-4.41a3.015 3.015 0 0 1 1.366-5.706 3.018 3.018 0 0 1 3.018 3.018ZM26.594 30.078v-2.834h2.268l5.4-17.126c.268-.836.538-1.015 1.432-1.015h2.507c.894 0 1.163.179 1.43 1.015l5.401 17.126h2.267v2.834h-8.652v-2.834h2.864l-1.104-3.729c-1.82 0-5.341.03-7.25.03l-1.104 3.699h2.864v2.834h-8.324Zm7.341-9.249h5.667l-2.595-8.803h-.448l-2.625 8.803ZM73.363 7.902c-1.546 3.414-9.443 8.198-9.443 14.277 0 2.46 1.88 4.455 4.196 4.455 1.555 0 2.911-.901 3.635-2.234.807-1.72.384-2.949.384-2.949.57 1.288.339 4.86.166 6.752h-2.089v1.876h6.3v-1.876h-2.081c-.163-1.896-.381-5.48.161-6.752 0 0-.325 1.54.382 2.949.723 1.334 2.079 2.234 3.635 2.234 2.316 0 4.194-1.995 4.194-4.455 0-6.079-7.879-10.822-9.441-14.277Z"/></svg>